<svg width="17" height="15" viewBox="0 0 17 15" fill="none" xmlns="http://www.w3.org/2000/svg">
<path d="M2.125 3.75H3.54167M3.54167 3.75H14.875M3.54167 3.75L3.54167 12.5C3.54167 12.8315 3.69092 13.1495 3.9566 13.3839C4.22228 13.6183 4.58261 13.75 4.95833 13.75H12.0417C12.4174 13.75 12.7777 13.6183 13.0434 13.3839C13.3091 13.1495 13.4583 12.8315 13.4583 12.5V3.75M5.66667 3.75V2.5C5.66667 2.16848 5.81592 1.85054 6.0816 1.61612C6.34728 1.3817 6.70761 1.25 7.08333 1.25H9.91667C10.2924 1.25 10.6527 1.3817 10.9184 1.61612C11.1841 1.85054 11.3333 2.16848 11.3333 2.5V3.75" stroke="#757575" stroke-width="1.6" stroke-linecap="round" stroke-linejoin="round"/>
</svg>
