<svg width="16" height="15" viewBox="0 0 16 15" fill="none" xmlns="http://www.w3.org/2000/svg">
<g clip-path="url(#clip0_8_836)">
<path d="M7.33333 2.50002H2.66667C2.31304 2.50002 1.9739 2.63172 1.72386 2.86614C1.47381 3.10056 1.33333 3.4185 1.33333 3.75002V12.5C1.33333 12.8315 1.47381 13.1495 1.72386 13.3839C1.9739 13.6183 2.31304 13.75 2.66667 13.75H12C12.3536 13.75 12.6928 13.6183 12.9428 13.3839C13.1929 13.1495 13.3333 12.8315 13.3333 12.5V8.12502M12.3333 1.56252C12.5985 1.31388 12.9583 1.17419 13.3333 1.17419C13.7084 1.17419 14.0681 1.31388 14.3333 1.56252C14.5985 1.81116 14.7475 2.14839 14.7475 2.50002C14.7475 2.85165 14.5985 3.18888 14.3333 3.43752L8 9.37502L5.33333 10L6 7.50002L12.3333 1.56252Z" stroke="#757575" stroke-width="1.6" stroke-linecap="round" stroke-linejoin="round"/>
</g>
<defs>
<clipPath id="clip0_8_836">
<rect width="16" height="15" fill="white"/>
</clipPath>
</defs>
</svg>
