<svg width="16" height="15" viewBox="0 0 16 15" fill="none" xmlns="http://www.w3.org/2000/svg">
<g clip-path="url(#clip0_8_839)">
<path d="M11.96 11.2125C10.8204 12.0269 9.43273 12.478 7.99999 12.5C3.33332 12.5 0.666656 7.5 0.666656 7.5C1.49592 6.05118 2.64608 4.78538 4.03999 3.7875M6.59999 2.65C7.05888 2.5493 7.5287 2.49896 7.99999 2.5C12.6667 2.5 15.3333 7.5 15.3333 7.5C14.9286 8.20975 14.446 8.87796 13.8933 9.49375M9.41332 8.825C9.23022 9.00922 9.00942 9.15697 8.76409 9.25945C8.51876 9.36193 8.25392 9.41704 7.98538 9.42148C7.71684 9.42592 7.4501 9.37961 7.20106 9.28531C6.95203 9.191 6.7258 9.05064 6.53589 8.8726C6.34597 8.69455 6.19625 8.48246 6.09566 8.24899C5.99507 8.01552 5.94567 7.76545 5.95041 7.51369C5.95515 7.26194 6.01393 7.01365 6.12324 6.78365C6.23255 6.55366 6.39016 6.34666 6.58666 6.175M0.666656 0.625L15.3333 14.375" stroke="#757575" stroke-width="2" stroke-linecap="round" stroke-linejoin="round"/>
</g>
<defs>
<clipPath id="clip0_8_839">
<rect width="16" height="15" fill="white"/>
</clipPath>
</defs>
</svg>
